# xmcd
#
# Track frame offsets:
#	150
#	15927
#	38475
#	58085
#	77983
#	96321
#	111819
#	127635
#	150158
#	169790
#	189750
#	208258
#
# Disc length: 2985 seconds
#
# Revision: 0
# Processed by: cddbd v1.5.2PL0 Copyright (c) Steve Scherf et al.
# Submitted via: audiograbber 1.83.01
#
DISCID=860ba70c
DTITLE=Various Artist - CB 20312
DYEAR=1900
DGENRE=Country
TTITLE0=George Strait - Christmas Cookies (Vocals)
TTITLE1=Newsong - The Christmas Shoes (Vocals)
TTITLE2=Montgomery Gentry - Merry Christmas From The Family (Vocals)
TTITLE3=Alecia Elliott - If You Believe (Vocals)
TTITLE4=Michael McDonald - On Christmas Morning (Vocals)
TTITLE5=SheDaisy - That's What I Want For Christmas (Vocals)
TTITLE6=George Strait - Christmas Cookies
TTITLE7=Newsong - The Christmas Shoes
TTITLE8=Montgomery Gentry - Merry Christmas From The Family
TTITLE9=Alecia Elliott - If You Believe
TTITLE10=Michael McDonald - On Christmas Morning
TTITLE11=SheDaisy - That's What I Want For Christmas
EXTD=
EXTT0=
EXTT1=
EXTT2=
EXTT3=
EXTT4=
EXTT5=
EXTT6=
EXTT7=
EXTT8=
EXTT9=
EXTT10=
EXTT11=
PLAYORDER=
